<?xml version="1.0" ?><svg style="enable-background:new 0 0 48 48;" version="1.1" viewBox="0 0 48 48" xml:space="preserve" xmlns="http://www.w3.org/2000/svg" xmlns:xlink="http://www.w3.org/1999/xlink"><g id="Icons"><g><path d="M24.00242,8.6541c-8.47998,0-15.34998,6.87-15.34998,15.35004    c0,8.46997,6.87,15.33997,15.34998,15.33997c8.47003,0,15.34002-6.87,15.34002-15.33997    C39.34245,15.5241,32.47245,8.6541,24.00242,8.6541z" style="fill:#D02726;"/><circle cx="24" cy="24" r="15.34377" style="fill:none;stroke:#303030;stroke-width:0.7;stroke-linecap:round;stroke-linejoin:round;stroke-miterlimit:10;"/><path d="    M21.6607,11.47916c0.53679-0.0955,1.07644-0.1576,1.61342-0.18429" style="fill:none;stroke:#303030;stroke-width:0.7;stroke-linecap:round;stroke-linejoin:round;stroke-miterlimit:10;"/><path d="    M15.23582,14.66794c1.44125-1.2413,3.22635-2.35482,5.10565-2.8855" style="fill:none;stroke:#303030;stroke-width:0.7;stroke-linecap:round;stroke-linejoin:round;stroke-miterlimit:10;"/><path d="M32.81359,23.42001c-0.01936-1.13564-0.06675-2.34931-0.10532-2.69692    c-0.20398-1.83872-0.78898-2.72704-1.99489-3.02873c-0.61649-0.15428-2.3204-0.23168-5.93959-0.26989    c-3.35235-0.03537-5.56995,0.03841-6.89204,0.17401c-1.34586,0.13796-2.08363,0.80026-2.39738,2.15227    c-0.34645,1.49295-0.41719,5.82456-0.12899,7.90179c0.08207,0.59188,0.33989,1.3679,0.56958,1.71461    c0.56848,0.8583,1.40458,1.07807,4.4924,1.18114c2.0787,0.06943,7.06742,0.03233,8.59101-0.05856    c1.4028-0.08375,1.72752-0.13964,2.22384-0.38281C32.54664,29.46293,32.89157,28.00451,32.81359,23.42001z" style="fill:#FFFFFF;"/><polygon points="21.96786,20.90903 21.96786,26.73883 27.18308,23.82393   " style="fill:#D02726;"/><path d="    M32.81359,23.42001c-0.01936-1.13564-0.06675-2.34931-0.10532-2.69692c-0.20398-1.83872-0.78898-2.72704-1.99489-3.02873    c-0.61649-0.15428-2.3204-0.23168-5.93959-0.26989c-3.35235-0.03537-5.56995,0.03841-6.89204,0.17401    c-1.34586,0.13796-2.08363,0.80026-2.39738,2.15227c-0.34645,1.49295-0.41719,5.82456-0.12899,7.90179    c0.08207,0.59188,0.33989,1.3679,0.56958,1.71461c0.56848,0.8583,1.40458,1.07807,4.4924,1.18114    c2.0787,0.06943,7.06742,0.03233,8.59101-0.05856c1.4028-0.08375,1.72752-0.13964,2.22384-0.38281    C32.54664,29.46293,32.89157,28.00451,32.81359,23.42001z" style="fill:none;stroke:#303030;stroke-width:0.7;stroke-linecap:round;stroke-linejoin:round;stroke-miterlimit:10;"/><polygon points="    21.96786,20.90903 21.96786,26.73883 27.18308,23.82393   " style="fill:none;stroke:#303030;stroke-width:0.7;stroke-linecap:round;stroke-linejoin:round;stroke-miterlimit:10;"/></g></g></svg>